<mxfile host="Electron" modified="2023-09-23T23:40:51.277Z" agent="Mozilla/5.0 (Windows NT 10.0; Win64; x64) AppleWebKit/537.36 (KHTML, like Gecko) draw.io/21.7.5 Chrome/114.0.5735.289 Electron/25.8.1 Safari/537.36" etag="irTUQwhAv3mtpJzqUyQM" version="21.7.5" type="device">
  <diagram name="Page-1" id="ki80xvuVTA4Wat7xEaxZ">
    <mxGraphModel dx="1264" dy="958" grid="0" gridSize="10" guides="1" tooltips="1" connect="1" arrows="1" fold="1" page="0" pageScale="1" pageWidth="850" pageHeight="1100" math="0" shadow="0">
      <root>
        <mxCell id="0" />
        <mxCell id="1" parent="0" />
        <mxCell id="7leiIgMVlhFr_THYciTA-1" style="edgeStyle=none;curved=1;rounded=0;orthogonalLoop=1;jettySize=auto;html=1;exitX=0.5;exitY=0;exitDx=0;exitDy=0;entryX=0.5;entryY=1;entryDx=0;entryDy=0;fontSize=12;startSize=8;endSize=8;labelBackgroundColor=none;strokeColor=#23445D;fontColor=default;" edge="1" parent="1" source="7leiIgMVlhFr_THYciTA-4" target="7leiIgMVlhFr_THYciTA-48">
          <mxGeometry relative="1" as="geometry">
            <mxPoint x="221" y="-39" as="sourcePoint" />
            <mxPoint x="86" y="-95" as="targetPoint" />
          </mxGeometry>
        </mxCell>
        <mxCell id="7leiIgMVlhFr_THYciTA-2" style="edgeStyle=none;curved=1;rounded=0;orthogonalLoop=1;jettySize=auto;html=1;exitX=0.5;exitY=0;exitDx=0;exitDy=0;fontSize=12;startSize=8;endSize=8;entryX=0.5;entryY=1;entryDx=0;entryDy=0;labelBackgroundColor=none;strokeColor=#23445D;fontColor=default;" edge="1" parent="1" source="7leiIgMVlhFr_THYciTA-4" target="7leiIgMVlhFr_THYciTA-49">
          <mxGeometry relative="1" as="geometry">
            <mxPoint x="176" y="-116" as="targetPoint" />
          </mxGeometry>
        </mxCell>
        <mxCell id="7leiIgMVlhFr_THYciTA-3" style="edgeStyle=none;curved=1;rounded=0;orthogonalLoop=1;jettySize=auto;html=1;exitX=0.5;exitY=0;exitDx=0;exitDy=0;entryX=0.5;entryY=1;entryDx=0;entryDy=0;fontSize=12;startSize=8;endSize=8;labelBackgroundColor=none;strokeColor=#23445D;fontColor=default;" edge="1" parent="1" source="7leiIgMVlhFr_THYciTA-4" target="7leiIgMVlhFr_THYciTA-50">
          <mxGeometry relative="1" as="geometry" />
        </mxCell>
        <mxCell id="7leiIgMVlhFr_THYciTA-4" value="Admin" style="whiteSpace=wrap;html=1;align=center;labelBackgroundColor=none;fillColor=#182E3E;strokeColor=#FFFFFF;fontColor=#FFFFFF;" vertex="1" parent="1">
          <mxGeometry x="160" y="-49" width="100" height="40" as="geometry" />
        </mxCell>
        <mxCell id="7leiIgMVlhFr_THYciTA-5" style="edgeStyle=none;curved=1;rounded=0;orthogonalLoop=1;jettySize=auto;html=1;exitX=0.5;exitY=0;exitDx=0;exitDy=0;entryX=0.5;entryY=1;entryDx=0;entryDy=0;fontSize=12;startSize=8;endSize=8;labelBackgroundColor=none;strokeColor=#23445D;fontColor=default;" edge="1" parent="1" source="7leiIgMVlhFr_THYciTA-13" target="7leiIgMVlhFr_THYciTA-51">
          <mxGeometry relative="1" as="geometry" />
        </mxCell>
        <mxCell id="7leiIgMVlhFr_THYciTA-6" style="edgeStyle=none;curved=1;rounded=0;orthogonalLoop=1;jettySize=auto;html=1;exitX=0.5;exitY=0;exitDx=0;exitDy=0;entryX=0.5;entryY=1;entryDx=0;entryDy=0;fontSize=12;startSize=8;endSize=8;labelBackgroundColor=none;strokeColor=#23445D;fontColor=default;" edge="1" parent="1" source="7leiIgMVlhFr_THYciTA-13" target="7leiIgMVlhFr_THYciTA-52">
          <mxGeometry relative="1" as="geometry" />
        </mxCell>
        <mxCell id="7leiIgMVlhFr_THYciTA-7" style="edgeStyle=none;curved=1;rounded=0;orthogonalLoop=1;jettySize=auto;html=1;exitX=0.5;exitY=0;exitDx=0;exitDy=0;entryX=0.5;entryY=1;entryDx=0;entryDy=0;fontSize=12;startSize=8;endSize=8;labelBackgroundColor=none;strokeColor=#23445D;fontColor=default;" edge="1" parent="1" source="7leiIgMVlhFr_THYciTA-13" target="7leiIgMVlhFr_THYciTA-53">
          <mxGeometry relative="1" as="geometry" />
        </mxCell>
        <mxCell id="7leiIgMVlhFr_THYciTA-8" style="edgeStyle=none;curved=1;rounded=0;orthogonalLoop=1;jettySize=auto;html=1;exitX=0.5;exitY=0;exitDx=0;exitDy=0;entryX=0.5;entryY=1;entryDx=0;entryDy=0;fontSize=12;startSize=8;endSize=8;labelBackgroundColor=none;strokeColor=#23445D;fontColor=default;" edge="1" parent="1" source="7leiIgMVlhFr_THYciTA-13" target="7leiIgMVlhFr_THYciTA-54">
          <mxGeometry relative="1" as="geometry" />
        </mxCell>
        <mxCell id="7leiIgMVlhFr_THYciTA-9" style="edgeStyle=none;curved=1;rounded=0;orthogonalLoop=1;jettySize=auto;html=1;exitX=0.5;exitY=0;exitDx=0;exitDy=0;entryX=0.5;entryY=1;entryDx=0;entryDy=0;fontSize=12;startSize=8;endSize=8;labelBackgroundColor=none;strokeColor=#23445D;fontColor=default;" edge="1" parent="1" source="7leiIgMVlhFr_THYciTA-13" target="7leiIgMVlhFr_THYciTA-55">
          <mxGeometry relative="1" as="geometry" />
        </mxCell>
        <mxCell id="7leiIgMVlhFr_THYciTA-10" style="edgeStyle=none;curved=1;rounded=0;orthogonalLoop=1;jettySize=auto;html=1;exitX=0.5;exitY=0;exitDx=0;exitDy=0;entryX=0.5;entryY=1;entryDx=0;entryDy=0;fontSize=12;startSize=8;endSize=8;labelBackgroundColor=none;strokeColor=#23445D;fontColor=default;" edge="1" parent="1" source="7leiIgMVlhFr_THYciTA-13" target="7leiIgMVlhFr_THYciTA-56">
          <mxGeometry relative="1" as="geometry" />
        </mxCell>
        <mxCell id="7leiIgMVlhFr_THYciTA-11" style="edgeStyle=none;curved=1;rounded=0;orthogonalLoop=1;jettySize=auto;html=1;exitX=0.5;exitY=0;exitDx=0;exitDy=0;fontSize=12;startSize=8;endSize=8;entryX=0.5;entryY=1;entryDx=0;entryDy=0;labelBackgroundColor=none;strokeColor=#23445D;fontColor=default;" edge="1" parent="1" source="7leiIgMVlhFr_THYciTA-13" target="7leiIgMVlhFr_THYciTA-57">
          <mxGeometry relative="1" as="geometry">
            <mxPoint x="1099" y="-138" as="targetPoint" />
          </mxGeometry>
        </mxCell>
        <mxCell id="7leiIgMVlhFr_THYciTA-12" style="edgeStyle=none;curved=1;rounded=0;orthogonalLoop=1;jettySize=auto;html=1;exitX=0.5;exitY=0;exitDx=0;exitDy=0;strokeColor=#23445D;fontSize=12;startSize=8;endSize=8;" edge="1" parent="1" source="7leiIgMVlhFr_THYciTA-13" target="7leiIgMVlhFr_THYciTA-107">
          <mxGeometry relative="1" as="geometry" />
        </mxCell>
        <mxCell id="7leiIgMVlhFr_THYciTA-13" value="Teacher" style="whiteSpace=wrap;html=1;align=center;labelBackgroundColor=none;fillColor=#182E3E;strokeColor=#FFFFFF;fontColor=#FFFFFF;" vertex="1" parent="1">
          <mxGeometry x="610" y="-49" width="100" height="40" as="geometry" />
        </mxCell>
        <mxCell id="7leiIgMVlhFr_THYciTA-14" style="edgeStyle=none;curved=1;rounded=0;orthogonalLoop=1;jettySize=auto;html=1;exitX=0;exitY=0.5;exitDx=0;exitDy=0;entryX=1;entryY=1;entryDx=0;entryDy=0;fontSize=12;startSize=8;endSize=8;labelBackgroundColor=none;strokeColor=#23445D;fontColor=default;" edge="1" parent="1" source="7leiIgMVlhFr_THYciTA-24" target="7leiIgMVlhFr_THYciTA-91">
          <mxGeometry relative="1" as="geometry" />
        </mxCell>
        <mxCell id="7leiIgMVlhFr_THYciTA-15" style="edgeStyle=none;curved=1;rounded=0;orthogonalLoop=1;jettySize=auto;html=1;exitX=0;exitY=0.5;exitDx=0;exitDy=0;entryX=1;entryY=1;entryDx=0;entryDy=0;fontSize=12;startSize=8;endSize=8;labelBackgroundColor=none;strokeColor=#23445D;fontColor=default;" edge="1" parent="1" source="7leiIgMVlhFr_THYciTA-24" target="7leiIgMVlhFr_THYciTA-92">
          <mxGeometry relative="1" as="geometry" />
        </mxCell>
        <mxCell id="7leiIgMVlhFr_THYciTA-16" style="edgeStyle=none;curved=1;rounded=0;orthogonalLoop=1;jettySize=auto;html=1;exitX=0;exitY=0.5;exitDx=0;exitDy=0;entryX=1;entryY=1;entryDx=0;entryDy=0;fontSize=12;startSize=8;endSize=8;labelBackgroundColor=none;strokeColor=#23445D;fontColor=default;" edge="1" parent="1" source="7leiIgMVlhFr_THYciTA-24" target="7leiIgMVlhFr_THYciTA-93">
          <mxGeometry relative="1" as="geometry" />
        </mxCell>
        <mxCell id="7leiIgMVlhFr_THYciTA-17" style="edgeStyle=none;curved=1;rounded=0;orthogonalLoop=1;jettySize=auto;html=1;exitX=0;exitY=0.5;exitDx=0;exitDy=0;entryX=1;entryY=0.5;entryDx=0;entryDy=0;fontSize=12;startSize=8;endSize=8;labelBackgroundColor=none;strokeColor=#23445D;fontColor=default;" edge="1" parent="1" source="7leiIgMVlhFr_THYciTA-24" target="7leiIgMVlhFr_THYciTA-94">
          <mxGeometry relative="1" as="geometry" />
        </mxCell>
        <mxCell id="7leiIgMVlhFr_THYciTA-18" style="edgeStyle=none;curved=1;rounded=0;orthogonalLoop=1;jettySize=auto;html=1;exitX=0;exitY=0.5;exitDx=0;exitDy=0;entryX=1;entryY=0.5;entryDx=0;entryDy=0;fontSize=12;startSize=8;endSize=8;labelBackgroundColor=none;strokeColor=#23445D;fontColor=default;" edge="1" parent="1" source="7leiIgMVlhFr_THYciTA-24" target="7leiIgMVlhFr_THYciTA-95">
          <mxGeometry relative="1" as="geometry" />
        </mxCell>
        <mxCell id="7leiIgMVlhFr_THYciTA-19" style="edgeStyle=none;curved=1;rounded=0;orthogonalLoop=1;jettySize=auto;html=1;exitX=0;exitY=0.5;exitDx=0;exitDy=0;entryX=1;entryY=0.5;entryDx=0;entryDy=0;fontSize=12;startSize=8;endSize=8;labelBackgroundColor=none;strokeColor=#23445D;fontColor=default;" edge="1" parent="1" source="7leiIgMVlhFr_THYciTA-24" target="7leiIgMVlhFr_THYciTA-96">
          <mxGeometry relative="1" as="geometry" />
        </mxCell>
        <mxCell id="7leiIgMVlhFr_THYciTA-20" style="edgeStyle=none;curved=1;rounded=0;orthogonalLoop=1;jettySize=auto;html=1;exitX=0;exitY=0.5;exitDx=0;exitDy=0;entryX=1;entryY=0.5;entryDx=0;entryDy=0;fontSize=12;startSize=8;endSize=8;labelBackgroundColor=none;strokeColor=#23445D;fontColor=default;" edge="1" parent="1" source="7leiIgMVlhFr_THYciTA-24" target="7leiIgMVlhFr_THYciTA-97">
          <mxGeometry relative="1" as="geometry" />
        </mxCell>
        <mxCell id="7leiIgMVlhFr_THYciTA-21" style="edgeStyle=none;curved=1;rounded=0;orthogonalLoop=1;jettySize=auto;html=1;exitX=0;exitY=0.75;exitDx=0;exitDy=0;fontSize=12;startSize=8;endSize=8;entryX=1;entryY=0.5;entryDx=0;entryDy=0;labelBackgroundColor=none;strokeColor=#23445D;fontColor=default;" edge="1" parent="1" source="7leiIgMVlhFr_THYciTA-24" target="7leiIgMVlhFr_THYciTA-98">
          <mxGeometry relative="1" as="geometry" />
        </mxCell>
        <mxCell id="7leiIgMVlhFr_THYciTA-22" style="edgeStyle=none;curved=1;rounded=0;orthogonalLoop=1;jettySize=auto;html=1;exitX=0;exitY=0.5;exitDx=0;exitDy=0;entryX=1;entryY=0.5;entryDx=0;entryDy=0;strokeColor=#23445D;fontSize=12;startSize=8;endSize=8;" edge="1" parent="1" source="7leiIgMVlhFr_THYciTA-24" target="7leiIgMVlhFr_THYciTA-108">
          <mxGeometry relative="1" as="geometry" />
        </mxCell>
        <mxCell id="7leiIgMVlhFr_THYciTA-23" style="edgeStyle=none;curved=1;rounded=0;orthogonalLoop=1;jettySize=auto;html=1;exitX=0;exitY=0.5;exitDx=0;exitDy=0;entryX=1;entryY=0.5;entryDx=0;entryDy=0;fontSize=12;startSize=8;endSize=8;" edge="1" parent="1" source="7leiIgMVlhFr_THYciTA-24" target="7leiIgMVlhFr_THYciTA-123">
          <mxGeometry relative="1" as="geometry" />
        </mxCell>
        <mxCell id="7leiIgMVlhFr_THYciTA-24" value="Student" style="whiteSpace=wrap;html=1;align=center;labelBackgroundColor=none;fillColor=#182E3E;strokeColor=#FFFFFF;fontColor=#FFFFFF;" vertex="1" parent="1">
          <mxGeometry x="150" y="317" width="100" height="30" as="geometry" />
        </mxCell>
        <mxCell id="7leiIgMVlhFr_THYciTA-25" style="edgeStyle=none;curved=1;rounded=0;orthogonalLoop=1;jettySize=auto;html=1;exitX=1;exitY=0.5;exitDx=0;exitDy=0;entryX=0.5;entryY=1;entryDx=0;entryDy=0;fontSize=12;startSize=8;endSize=8;labelBackgroundColor=none;strokeColor=#23445D;fontColor=default;" edge="1" parent="1" source="7leiIgMVlhFr_THYciTA-30" target="7leiIgMVlhFr_THYciTA-58">
          <mxGeometry relative="1" as="geometry" />
        </mxCell>
        <mxCell id="7leiIgMVlhFr_THYciTA-26" style="edgeStyle=none;curved=1;rounded=0;orthogonalLoop=1;jettySize=auto;html=1;exitX=1;exitY=0.5;exitDx=0;exitDy=0;entryX=0.5;entryY=1;entryDx=0;entryDy=0;fontSize=12;startSize=8;endSize=8;labelBackgroundColor=none;strokeColor=#23445D;fontColor=default;" edge="1" parent="1" source="7leiIgMVlhFr_THYciTA-30" target="7leiIgMVlhFr_THYciTA-59">
          <mxGeometry relative="1" as="geometry" />
        </mxCell>
        <mxCell id="7leiIgMVlhFr_THYciTA-27" style="edgeStyle=none;curved=1;rounded=0;orthogonalLoop=1;jettySize=auto;html=1;exitX=1;exitY=0.5;exitDx=0;exitDy=0;fontSize=12;startSize=8;endSize=8;labelBackgroundColor=none;strokeColor=#23445D;fontColor=default;" edge="1" parent="1" source="7leiIgMVlhFr_THYciTA-30" target="7leiIgMVlhFr_THYciTA-60">
          <mxGeometry relative="1" as="geometry" />
        </mxCell>
        <mxCell id="7leiIgMVlhFr_THYciTA-28" style="edgeStyle=none;curved=1;rounded=0;orthogonalLoop=1;jettySize=auto;html=1;exitX=1;exitY=0.5;exitDx=0;exitDy=0;entryX=0;entryY=0.5;entryDx=0;entryDy=0;fontSize=12;startSize=8;endSize=8;labelBackgroundColor=none;strokeColor=#23445D;fontColor=default;" edge="1" parent="1" source="7leiIgMVlhFr_THYciTA-30" target="7leiIgMVlhFr_THYciTA-61">
          <mxGeometry relative="1" as="geometry" />
        </mxCell>
        <mxCell id="7leiIgMVlhFr_THYciTA-29" style="edgeStyle=none;curved=1;rounded=0;orthogonalLoop=1;jettySize=auto;html=1;exitX=1;exitY=0.5;exitDx=0;exitDy=0;entryX=0;entryY=0.5;entryDx=0;entryDy=0;strokeColor=#23445D;fontSize=12;startSize=8;endSize=8;" edge="1" parent="1" source="7leiIgMVlhFr_THYciTA-30" target="7leiIgMVlhFr_THYciTA-106">
          <mxGeometry relative="1" as="geometry" />
        </mxCell>
        <mxCell id="7leiIgMVlhFr_THYciTA-30" value="Classroom" style="whiteSpace=wrap;html=1;align=center;labelBackgroundColor=none;fillColor=#182E3E;strokeColor=#FFFFFF;fontColor=#FFFFFF;" vertex="1" parent="1">
          <mxGeometry x="610" y="312" width="100" height="40" as="geometry" />
        </mxCell>
        <mxCell id="7leiIgMVlhFr_THYciTA-31" style="edgeStyle=none;curved=1;rounded=0;orthogonalLoop=1;jettySize=auto;html=1;exitX=1;exitY=0.5;exitDx=0;exitDy=0;entryX=0;entryY=0.5;entryDx=0;entryDy=0;strokeColor=#23445D;fontSize=12;startSize=8;endSize=8;" edge="1" parent="1" source="7leiIgMVlhFr_THYciTA-35" target="7leiIgMVlhFr_THYciTA-103">
          <mxGeometry relative="1" as="geometry" />
        </mxCell>
        <mxCell id="7leiIgMVlhFr_THYciTA-32" style="edgeStyle=none;curved=1;rounded=0;orthogonalLoop=1;jettySize=auto;html=1;exitX=1;exitY=0.5;exitDx=0;exitDy=0;entryX=0.02;entryY=0.675;entryDx=0;entryDy=0;entryPerimeter=0;strokeColor=#23445D;fontSize=12;startSize=8;endSize=8;" edge="1" parent="1" source="7leiIgMVlhFr_THYciTA-35" target="7leiIgMVlhFr_THYciTA-104">
          <mxGeometry relative="1" as="geometry" />
        </mxCell>
        <mxCell id="7leiIgMVlhFr_THYciTA-33" style="edgeStyle=none;curved=1;rounded=0;orthogonalLoop=1;jettySize=auto;html=1;exitX=1;exitY=0.5;exitDx=0;exitDy=0;entryX=0;entryY=0.5;entryDx=0;entryDy=0;strokeColor=#23445D;fontSize=12;startSize=8;endSize=8;" edge="1" parent="1" source="7leiIgMVlhFr_THYciTA-35" target="7leiIgMVlhFr_THYciTA-105">
          <mxGeometry relative="1" as="geometry" />
        </mxCell>
        <mxCell id="7leiIgMVlhFr_THYciTA-34" style="edgeStyle=none;curved=1;rounded=0;orthogonalLoop=1;jettySize=auto;html=1;exitX=1;exitY=0.5;exitDx=0;exitDy=0;entryX=0;entryY=0.5;entryDx=0;entryDy=0;strokeColor=#23445D;fontSize=12;startSize=8;endSize=8;" edge="1" parent="1" source="7leiIgMVlhFr_THYciTA-35" target="7leiIgMVlhFr_THYciTA-109">
          <mxGeometry relative="1" as="geometry" />
        </mxCell>
        <mxCell id="7leiIgMVlhFr_THYciTA-35" value="Exam" style="whiteSpace=wrap;html=1;align=center;labelBackgroundColor=none;fillColor=#182E3E;strokeColor=#FFFFFF;fontColor=#FFFFFF;" vertex="1" parent="1">
          <mxGeometry x="610" y="652" width="100" height="40" as="geometry" />
        </mxCell>
        <mxCell id="7leiIgMVlhFr_THYciTA-36" style="edgeStyle=orthogonalEdgeStyle;rounded=0;orthogonalLoop=1;jettySize=auto;html=1;exitX=0;exitY=0.5;exitDx=0;exitDy=0;endArrow=ERmandOne;endFill=0;labelBackgroundColor=none;strokeColor=#23445D;fontColor=default;" edge="1" parent="1" source="7leiIgMVlhFr_THYciTA-38" target="7leiIgMVlhFr_THYciTA-4">
          <mxGeometry relative="1" as="geometry" />
        </mxCell>
        <mxCell id="7leiIgMVlhFr_THYciTA-37" style="edgeStyle=orthogonalEdgeStyle;rounded=0;orthogonalLoop=1;jettySize=auto;html=1;exitX=1;exitY=0.5;exitDx=0;exitDy=0;endArrow=ERzeroToMany;endFill=0;labelBackgroundColor=none;strokeColor=#23445D;fontColor=default;" edge="1" parent="1" source="7leiIgMVlhFr_THYciTA-38" target="7leiIgMVlhFr_THYciTA-13">
          <mxGeometry relative="1" as="geometry" />
        </mxCell>
        <mxCell id="7leiIgMVlhFr_THYciTA-38" value="Add" style="shape=rhombus;perimeter=rhombusPerimeter;whiteSpace=wrap;html=1;align=center;labelBackgroundColor=none;fillColor=#182E3E;strokeColor=#FFFFFF;fontColor=#FFFFFF;" vertex="1" parent="1">
          <mxGeometry x="375" y="-59" width="120" height="60" as="geometry" />
        </mxCell>
        <mxCell id="7leiIgMVlhFr_THYciTA-39" style="edgeStyle=orthogonalEdgeStyle;rounded=0;orthogonalLoop=1;jettySize=auto;html=1;exitX=0.5;exitY=0;exitDx=0;exitDy=0;endArrow=ERmandOne;endFill=0;entryX=0.42;entryY=1.025;entryDx=0;entryDy=0;entryPerimeter=0;labelBackgroundColor=none;strokeColor=#23445D;fontColor=default;" edge="1" parent="1" source="7leiIgMVlhFr_THYciTA-41" target="7leiIgMVlhFr_THYciTA-4">
          <mxGeometry relative="1" as="geometry">
            <mxPoint x="35" y="260" as="targetPoint" />
            <Array as="points">
              <mxPoint x="202" y="61" />
            </Array>
          </mxGeometry>
        </mxCell>
        <mxCell id="7leiIgMVlhFr_THYciTA-40" style="edgeStyle=orthogonalEdgeStyle;rounded=0;orthogonalLoop=1;jettySize=auto;html=1;exitX=0.5;exitY=1;exitDx=0;exitDy=0;endArrow=ERzeroToMany;endFill=0;entryX=0.5;entryY=0;entryDx=0;entryDy=0;labelBackgroundColor=none;strokeColor=#23445D;fontColor=default;" edge="1" parent="1" source="7leiIgMVlhFr_THYciTA-41" target="7leiIgMVlhFr_THYciTA-24">
          <mxGeometry relative="1" as="geometry">
            <mxPoint x="270" y="269" as="targetPoint" />
            <Array as="points">
              <mxPoint x="200" y="251" />
              <mxPoint x="200" y="251" />
            </Array>
          </mxGeometry>
        </mxCell>
        <mxCell id="7leiIgMVlhFr_THYciTA-41" value="Add" style="shape=rhombus;perimeter=rhombusPerimeter;whiteSpace=wrap;html=1;align=center;labelBackgroundColor=none;fillColor=#182E3E;strokeColor=#FFFFFF;fontColor=#FFFFFF;" vertex="1" parent="1">
          <mxGeometry x="143" y="86" width="120" height="60" as="geometry" />
        </mxCell>
        <mxCell id="7leiIgMVlhFr_THYciTA-42" style="edgeStyle=orthogonalEdgeStyle;rounded=0;orthogonalLoop=1;jettySize=auto;html=1;exitX=0.5;exitY=0;exitDx=0;exitDy=0;entryX=0.5;entryY=1;entryDx=0;entryDy=0;endArrow=ERmandOne;endFill=0;labelBackgroundColor=none;strokeColor=#23445D;fontColor=default;" edge="1" parent="1" source="7leiIgMVlhFr_THYciTA-44" target="7leiIgMVlhFr_THYciTA-13">
          <mxGeometry relative="1" as="geometry">
            <mxPoint x="660" y="31" as="sourcePoint" />
          </mxGeometry>
        </mxCell>
        <mxCell id="7leiIgMVlhFr_THYciTA-43" style="edgeStyle=orthogonalEdgeStyle;rounded=0;orthogonalLoop=1;jettySize=auto;html=1;exitX=0.5;exitY=1;exitDx=0;exitDy=0;entryX=0.5;entryY=0;entryDx=0;entryDy=0;endArrow=ERzeroToMany;endFill=0;labelBackgroundColor=none;strokeColor=#23445D;fontColor=default;" edge="1" parent="1" source="7leiIgMVlhFr_THYciTA-44" target="7leiIgMVlhFr_THYciTA-30">
          <mxGeometry relative="1" as="geometry" />
        </mxCell>
        <mxCell id="7leiIgMVlhFr_THYciTA-44" value="Mange" style="shape=rhombus;perimeter=rhombusPerimeter;whiteSpace=wrap;html=1;align=center;labelBackgroundColor=none;fillColor=#182E3E;strokeColor=#FFFFFF;fontColor=#FFFFFF;" vertex="1" parent="1">
          <mxGeometry x="600" y="86" width="120" height="60" as="geometry" />
        </mxCell>
        <mxCell id="7leiIgMVlhFr_THYciTA-45" style="edgeStyle=orthogonalEdgeStyle;rounded=0;orthogonalLoop=1;jettySize=auto;html=1;exitX=0.5;exitY=0;exitDx=0;exitDy=0;endArrow=ERmandOne;endFill=0;labelBackgroundColor=none;strokeColor=#23445D;fontColor=default;" edge="1" parent="1" source="7leiIgMVlhFr_THYciTA-47">
          <mxGeometry relative="1" as="geometry">
            <mxPoint x="660" y="352" as="targetPoint" />
          </mxGeometry>
        </mxCell>
        <mxCell id="7leiIgMVlhFr_THYciTA-46" style="edgeStyle=none;curved=1;rounded=0;orthogonalLoop=1;jettySize=auto;html=1;exitX=0.5;exitY=1;exitDx=0;exitDy=0;fontSize=12;startSize=8;endSize=8;endArrow=ERoneToMany;endFill=0;labelBackgroundColor=none;strokeColor=#23445D;fontColor=default;" edge="1" parent="1" source="7leiIgMVlhFr_THYciTA-47" target="7leiIgMVlhFr_THYciTA-35">
          <mxGeometry relative="1" as="geometry" />
        </mxCell>
        <mxCell id="7leiIgMVlhFr_THYciTA-47" value="have" style="shape=rhombus;perimeter=rhombusPerimeter;whiteSpace=wrap;html=1;align=center;labelBackgroundColor=none;fillColor=#182E3E;strokeColor=#FFFFFF;fontColor=#FFFFFF;" vertex="1" parent="1">
          <mxGeometry x="600" y="428" width="120" height="60" as="geometry" />
        </mxCell>
        <mxCell id="7leiIgMVlhFr_THYciTA-48" value="ID" style="ellipse;whiteSpace=wrap;html=1;align=center;fontStyle=4;fontSize=16;labelBackgroundColor=none;fillColor=#182E3E;strokeColor=#FFFFFF;fontColor=#FFFFFF;" vertex="1" parent="1">
          <mxGeometry x="2" y="-144" width="100" height="40" as="geometry" />
        </mxCell>
        <mxCell id="7leiIgMVlhFr_THYciTA-49" value="Name" style="ellipse;whiteSpace=wrap;html=1;align=center;fontSize=16;labelBackgroundColor=none;fillColor=#182E3E;strokeColor=#FFFFFF;fontColor=#FFFFFF;" vertex="1" parent="1">
          <mxGeometry x="93" y="-182" width="100" height="40" as="geometry" />
        </mxCell>
        <mxCell id="7leiIgMVlhFr_THYciTA-50" value="Password" style="ellipse;whiteSpace=wrap;html=1;align=center;fontSize=16;labelBackgroundColor=none;fillColor=#182E3E;strokeColor=#FFFFFF;fontColor=#FFFFFF;" vertex="1" parent="1">
          <mxGeometry x="198" y="-179" width="100" height="40" as="geometry" />
        </mxCell>
        <mxCell id="7leiIgMVlhFr_THYciTA-51" value="ID" style="ellipse;whiteSpace=wrap;html=1;align=center;fontStyle=4;fontSize=16;labelBackgroundColor=none;fillColor=#182E3E;strokeColor=#FFFFFF;fontColor=#FFFFFF;" vertex="1" parent="1">
          <mxGeometry x="354" y="-179" width="100" height="40" as="geometry" />
        </mxCell>
        <mxCell id="7leiIgMVlhFr_THYciTA-52" value="Name" style="ellipse;whiteSpace=wrap;html=1;align=center;fontSize=16;labelBackgroundColor=none;fillColor=#182E3E;strokeColor=#FFFFFF;fontColor=#FFFFFF;" vertex="1" parent="1">
          <mxGeometry x="457" y="-180" width="100" height="39" as="geometry" />
        </mxCell>
        <mxCell id="7leiIgMVlhFr_THYciTA-53" value="SSN" style="ellipse;whiteSpace=wrap;html=1;align=center;fontSize=16;labelBackgroundColor=none;fillColor=#182E3E;strokeColor=#FFFFFF;fontColor=#FFFFFF;" vertex="1" parent="1">
          <mxGeometry x="578" y="-182" width="95" height="40" as="geometry" />
        </mxCell>
        <mxCell id="7leiIgMVlhFr_THYciTA-54" value="Password" style="ellipse;whiteSpace=wrap;html=1;align=center;fontSize=16;labelBackgroundColor=none;fillColor=#182E3E;strokeColor=#FFFFFF;fontColor=#FFFFFF;" vertex="1" parent="1">
          <mxGeometry x="678" y="-182" width="100" height="40" as="geometry" />
        </mxCell>
        <mxCell id="7leiIgMVlhFr_THYciTA-55" value="Email" style="ellipse;whiteSpace=wrap;html=1;align=center;fontSize=16;labelBackgroundColor=none;fillColor=#182E3E;strokeColor=#FFFFFF;fontColor=#FFFFFF;" vertex="1" parent="1">
          <mxGeometry x="784" y="-179" width="100" height="40" as="geometry" />
        </mxCell>
        <mxCell id="7leiIgMVlhFr_THYciTA-56" value="Created_at" style="ellipse;whiteSpace=wrap;html=1;align=center;fontSize=16;labelBackgroundColor=none;fillColor=#182E3E;strokeColor=#FFFFFF;fontColor=#FFFFFF;" vertex="1" parent="1">
          <mxGeometry x="892" y="-179" width="100" height="40" as="geometry" />
        </mxCell>
        <mxCell id="7leiIgMVlhFr_THYciTA-57" value="Updated_at" style="ellipse;whiteSpace=wrap;html=1;align=center;fontSize=16;labelBackgroundColor=none;fillColor=#182E3E;strokeColor=#FFFFFF;fontColor=#FFFFFF;" vertex="1" parent="1">
          <mxGeometry x="1000" y="-168" width="100" height="40" as="geometry" />
        </mxCell>
        <mxCell id="7leiIgMVlhFr_THYciTA-58" value="ID" style="ellipse;whiteSpace=wrap;html=1;align=center;fontStyle=4;fontSize=16;labelBackgroundColor=none;fillColor=#182E3E;strokeColor=#FFFFFF;fontColor=#FFFFFF;" vertex="1" parent="1">
          <mxGeometry x="684" y="193" width="100" height="40" as="geometry" />
        </mxCell>
        <mxCell id="7leiIgMVlhFr_THYciTA-59" value="Name" style="ellipse;whiteSpace=wrap;html=1;align=center;fontSize=16;labelBackgroundColor=none;fillColor=#182E3E;strokeColor=#FFFFFF;fontColor=#FFFFFF;" vertex="1" parent="1">
          <mxGeometry x="792" y="193" width="100" height="40" as="geometry" />
        </mxCell>
        <mxCell id="7leiIgMVlhFr_THYciTA-60" value="Created_at" style="ellipse;whiteSpace=wrap;html=1;align=center;fontSize=16;labelBackgroundColor=none;fillColor=#182E3E;strokeColor=#FFFFFF;fontColor=#FFFFFF;" vertex="1" parent="1">
          <mxGeometry x="875" y="280" width="100" height="40" as="geometry" />
        </mxCell>
        <mxCell id="7leiIgMVlhFr_THYciTA-61" value="Updated_at" style="ellipse;whiteSpace=wrap;html=1;align=center;fontSize=16;labelBackgroundColor=none;fillColor=#182E3E;strokeColor=#FFFFFF;fontColor=#FFFFFF;" vertex="1" parent="1">
          <mxGeometry x="859" y="325" width="100" height="40" as="geometry" />
        </mxCell>
        <mxCell id="7leiIgMVlhFr_THYciTA-62" value="Decription _Constraiens" style="ellipse;whiteSpace=wrap;html=1;align=center;fontSize=16;labelBackgroundColor=none;fillColor=#182E3E;strokeColor=#FFFFFF;fontColor=#FFFFFF;" vertex="1" parent="1">
          <mxGeometry x="875" y="215" width="144" height="53" as="geometry" />
        </mxCell>
        <mxCell id="7leiIgMVlhFr_THYciTA-63" style="edgeStyle=none;curved=1;rounded=0;orthogonalLoop=1;jettySize=auto;html=1;exitX=0.5;exitY=0;exitDx=0;exitDy=0;fontSize=12;startSize=8;endSize=8;endArrow=ERoneToMany;endFill=0;entryX=0.75;entryY=1;entryDx=0;entryDy=0;labelBackgroundColor=none;strokeColor=#23445D;fontColor=default;" edge="1" parent="1" source="7leiIgMVlhFr_THYciTA-65" target="7leiIgMVlhFr_THYciTA-75">
          <mxGeometry relative="1" as="geometry">
            <mxPoint x="495" y="239" as="targetPoint" />
          </mxGeometry>
        </mxCell>
        <mxCell id="7leiIgMVlhFr_THYciTA-64" style="edgeStyle=none;curved=1;rounded=0;orthogonalLoop=1;jettySize=auto;html=1;exitX=1;exitY=0.5;exitDx=0;exitDy=0;entryX=0.25;entryY=1;entryDx=0;entryDy=0;fontSize=12;startSize=8;endSize=8;endArrow=ERmandOne;endFill=0;labelBackgroundColor=none;strokeColor=#23445D;fontColor=default;" edge="1" parent="1" source="7leiIgMVlhFr_THYciTA-65" target="7leiIgMVlhFr_THYciTA-30">
          <mxGeometry relative="1" as="geometry" />
        </mxCell>
        <mxCell id="7leiIgMVlhFr_THYciTA-65" value="Attended_By" style="shape=rhombus;perimeter=rhombusPerimeter;whiteSpace=wrap;html=1;align=center;fontSize=16;labelBackgroundColor=none;fillColor=#182E3E;strokeColor=#FFFFFF;fontColor=#FFFFFF;" vertex="1" parent="1">
          <mxGeometry x="431" y="496" width="120" height="60" as="geometry" />
        </mxCell>
        <mxCell id="7leiIgMVlhFr_THYciTA-66" style="edgeStyle=none;curved=1;rounded=0;orthogonalLoop=1;jettySize=auto;html=1;exitX=0;exitY=0.5;exitDx=0;exitDy=0;entryX=0.75;entryY=1;entryDx=0;entryDy=0;fontSize=12;startSize=8;endSize=8;endArrow=ERmandOne;endFill=0;labelBackgroundColor=none;strokeColor=#23445D;fontColor=default;" edge="1" parent="1" source="7leiIgMVlhFr_THYciTA-68" target="7leiIgMVlhFr_THYciTA-24">
          <mxGeometry relative="1" as="geometry" />
        </mxCell>
        <mxCell id="7leiIgMVlhFr_THYciTA-67" style="edgeStyle=none;curved=1;rounded=0;orthogonalLoop=1;jettySize=auto;html=1;exitX=0.5;exitY=0;exitDx=0;exitDy=0;fontSize=12;startSize=8;endSize=8;endArrow=ERoneToMany;endFill=0;labelBackgroundColor=none;strokeColor=#23445D;fontColor=default;entryX=0.25;entryY=1;entryDx=0;entryDy=0;" edge="1" parent="1" source="7leiIgMVlhFr_THYciTA-68" target="7leiIgMVlhFr_THYciTA-75">
          <mxGeometry relative="1" as="geometry">
            <mxPoint x="351" y="247" as="targetPoint" />
          </mxGeometry>
        </mxCell>
        <mxCell id="7leiIgMVlhFr_THYciTA-68" value="Attend" style="shape=rhombus;perimeter=rhombusPerimeter;whiteSpace=wrap;html=1;align=center;fontSize=16;labelBackgroundColor=none;fillColor=#182E3E;strokeColor=#FFFFFF;fontColor=#FFFFFF;" vertex="1" parent="1">
          <mxGeometry x="288" y="496" width="116" height="60" as="geometry" />
        </mxCell>
        <mxCell id="7leiIgMVlhFr_THYciTA-69" value="&lt;span style=&quot;border-bottom: 1px dotted&quot;&gt;ID&lt;/span&gt;" style="ellipse;whiteSpace=wrap;html=1;align=center;fontSize=16;labelBackgroundColor=none;fillColor=#182E3E;strokeColor=#FFFFFF;fontColor=#FFFFFF;" vertex="1" parent="1">
          <mxGeometry x="238" y="350" width="84" height="40" as="geometry" />
        </mxCell>
        <mxCell id="7leiIgMVlhFr_THYciTA-70" style="edgeStyle=none;curved=1;rounded=0;orthogonalLoop=1;jettySize=auto;html=1;exitX=0.5;exitY=0;exitDx=0;exitDy=0;entryX=0.5;entryY=1;entryDx=0;entryDy=0;fontSize=12;startSize=8;endSize=8;labelBackgroundColor=none;strokeColor=#23445D;fontColor=default;" edge="1" parent="1" source="7leiIgMVlhFr_THYciTA-75" target="7leiIgMVlhFr_THYciTA-69">
          <mxGeometry relative="1" as="geometry" />
        </mxCell>
        <mxCell id="7leiIgMVlhFr_THYciTA-71" value="" style="edgeStyle=none;curved=1;rounded=0;orthogonalLoop=1;jettySize=auto;html=1;fontSize=12;startSize=8;endSize=8;labelBackgroundColor=none;strokeColor=#23445D;fontColor=default;" edge="1" parent="1" source="7leiIgMVlhFr_THYciTA-75" target="7leiIgMVlhFr_THYciTA-76">
          <mxGeometry relative="1" as="geometry" />
        </mxCell>
        <mxCell id="7leiIgMVlhFr_THYciTA-72" style="edgeStyle=none;curved=1;rounded=0;orthogonalLoop=1;jettySize=auto;html=1;exitX=0.5;exitY=0;exitDx=0;exitDy=0;entryX=0.5;entryY=1;entryDx=0;entryDy=0;fontSize=12;startSize=8;endSize=8;labelBackgroundColor=none;strokeColor=#23445D;fontColor=default;" edge="1" parent="1" source="7leiIgMVlhFr_THYciTA-75" target="7leiIgMVlhFr_THYciTA-78">
          <mxGeometry relative="1" as="geometry" />
        </mxCell>
        <mxCell id="7leiIgMVlhFr_THYciTA-73" style="edgeStyle=none;curved=1;rounded=0;orthogonalLoop=1;jettySize=auto;html=1;exitX=0.5;exitY=0;exitDx=0;exitDy=0;entryX=0.423;entryY=0.958;entryDx=0;entryDy=0;entryPerimeter=0;fontSize=12;startSize=8;endSize=8;labelBackgroundColor=none;strokeColor=#23445D;fontColor=default;" edge="1" parent="1" source="7leiIgMVlhFr_THYciTA-75" target="7leiIgMVlhFr_THYciTA-79">
          <mxGeometry relative="1" as="geometry" />
        </mxCell>
        <mxCell id="7leiIgMVlhFr_THYciTA-74" style="edgeStyle=none;curved=1;rounded=0;orthogonalLoop=1;jettySize=auto;html=1;exitX=0.5;exitY=0;exitDx=0;exitDy=0;entryX=0.5;entryY=1;entryDx=0;entryDy=0;fontSize=12;startSize=8;endSize=8;labelBackgroundColor=none;strokeColor=#23445D;fontColor=default;" edge="1" parent="1" source="7leiIgMVlhFr_THYciTA-75" target="7leiIgMVlhFr_THYciTA-77">
          <mxGeometry relative="1" as="geometry" />
        </mxCell>
        <mxCell id="7leiIgMVlhFr_THYciTA-75" value="Student_Classroom_attend" style="shape=ext;margin=3;double=1;whiteSpace=wrap;html=1;align=center;fontSize=16;labelBackgroundColor=none;fillColor=#182E3E;strokeColor=#FFFFFF;fontColor=#FFFFFF;" vertex="1" parent="1">
          <mxGeometry x="316" y="417" width="205" height="40" as="geometry" />
        </mxCell>
        <mxCell id="7leiIgMVlhFr_THYciTA-76" value="Classroom_id" style="ellipse;whiteSpace=wrap;html=1;align=center;fontSize=16;labelBackgroundColor=none;fillColor=#182E3E;strokeColor=#FFFFFF;fontColor=#FFFFFF;" vertex="1" parent="1">
          <mxGeometry x="357" y="285" width="100" height="40" as="geometry" />
        </mxCell>
        <mxCell id="7leiIgMVlhFr_THYciTA-77" value="Date" style="ellipse;whiteSpace=wrap;html=1;align=center;fontSize=16;labelBackgroundColor=none;fillColor=#182E3E;strokeColor=#FFFFFF;fontColor=#FFFFFF;" vertex="1" parent="1">
          <mxGeometry x="489" y="350" width="100" height="40" as="geometry" />
        </mxCell>
        <mxCell id="7leiIgMVlhFr_THYciTA-78" value="Student_id" style="ellipse;whiteSpace=wrap;html=1;align=center;fontSize=16;labelBackgroundColor=none;fillColor=#182E3E;strokeColor=#FFFFFF;fontColor=#FFFFFF;" vertex="1" parent="1">
          <mxGeometry x="271" y="307" width="100" height="40" as="geometry" />
        </mxCell>
        <mxCell id="7leiIgMVlhFr_THYciTA-79" value="Status" style="ellipse;whiteSpace=wrap;html=1;align=center;fontSize=16;labelBackgroundColor=none;fillColor=#182E3E;strokeColor=#FFFFFF;fontColor=#FFFFFF;" vertex="1" parent="1">
          <mxGeometry x="437" y="307" width="100" height="40" as="geometry" />
        </mxCell>
        <mxCell id="7leiIgMVlhFr_THYciTA-80" style="edgeStyle=none;curved=1;rounded=0;orthogonalLoop=1;jettySize=auto;html=1;exitX=0;exitY=0.5;exitDx=0;exitDy=0;entryX=0.99;entryY=0.7;entryDx=0;entryDy=0;entryPerimeter=0;strokeColor=#23445D;fontSize=12;startSize=8;endSize=8;" edge="1" parent="1" source="7leiIgMVlhFr_THYciTA-84" target="7leiIgMVlhFr_THYciTA-99">
          <mxGeometry relative="1" as="geometry" />
        </mxCell>
        <mxCell id="7leiIgMVlhFr_THYciTA-81" value="" style="edgeStyle=none;curved=1;rounded=0;orthogonalLoop=1;jettySize=auto;html=1;strokeColor=#23445D;fontSize=12;startSize=8;endSize=8;" edge="1" parent="1" target="7leiIgMVlhFr_THYciTA-101">
          <mxGeometry relative="1" as="geometry">
            <mxPoint x="108" y="675" as="sourcePoint" />
          </mxGeometry>
        </mxCell>
        <mxCell id="7leiIgMVlhFr_THYciTA-82" style="edgeStyle=none;curved=1;rounded=0;orthogonalLoop=1;jettySize=auto;html=1;exitX=0;exitY=0.5;exitDx=0;exitDy=0;strokeColor=#23445D;fontSize=12;startSize=8;endSize=8;" edge="1" parent="1" source="7leiIgMVlhFr_THYciTA-84" target="7leiIgMVlhFr_THYciTA-100">
          <mxGeometry relative="1" as="geometry" />
        </mxCell>
        <mxCell id="7leiIgMVlhFr_THYciTA-83" style="edgeStyle=none;curved=1;rounded=0;orthogonalLoop=1;jettySize=auto;html=1;exitX=0;exitY=0.5;exitDx=0;exitDy=0;entryX=1;entryY=0.5;entryDx=0;entryDy=0;strokeColor=#23445D;fontSize=12;startSize=8;endSize=8;" edge="1" parent="1" source="7leiIgMVlhFr_THYciTA-84" target="7leiIgMVlhFr_THYciTA-102">
          <mxGeometry relative="1" as="geometry" />
        </mxCell>
        <mxCell id="7leiIgMVlhFr_THYciTA-84" value="Student_Exam_degree" style="shape=ext;margin=3;double=1;whiteSpace=wrap;html=1;align=center;fontSize=16;labelBackgroundColor=none;fillColor=#182E3E;strokeColor=#FFFFFF;fontColor=#FFFFFF;" vertex="1" parent="1">
          <mxGeometry x="109" y="655" width="183.5" height="40" as="geometry" />
        </mxCell>
        <mxCell id="7leiIgMVlhFr_THYciTA-85" style="edgeStyle=none;curved=1;rounded=0;orthogonalLoop=1;jettySize=auto;html=1;exitX=0.5;exitY=1;exitDx=0;exitDy=0;entryX=0.5;entryY=0;entryDx=0;entryDy=0;fontSize=12;startSize=8;endSize=8;endArrow=ERoneToMany;endFill=0;labelBackgroundColor=none;strokeColor=#23445D;fontColor=default;" edge="1" parent="1" source="7leiIgMVlhFr_THYciTA-87" target="7leiIgMVlhFr_THYciTA-84">
          <mxGeometry relative="1" as="geometry" />
        </mxCell>
        <mxCell id="7leiIgMVlhFr_THYciTA-86" style="edgeStyle=none;curved=1;rounded=0;orthogonalLoop=1;jettySize=auto;html=1;exitX=0.5;exitY=0;exitDx=0;exitDy=0;entryX=0.5;entryY=1;entryDx=0;entryDy=0;fontSize=12;startSize=8;endSize=8;endArrow=ERmandOne;endFill=0;labelBackgroundColor=none;strokeColor=#23445D;fontColor=default;" edge="1" parent="1" source="7leiIgMVlhFr_THYciTA-87" target="7leiIgMVlhFr_THYciTA-24">
          <mxGeometry relative="1" as="geometry" />
        </mxCell>
        <mxCell id="7leiIgMVlhFr_THYciTA-87" value="Pass" style="shape=rhombus;perimeter=rhombusPerimeter;whiteSpace=wrap;html=1;align=center;fontSize=16;labelBackgroundColor=none;fillColor=#182E3E;strokeColor=#FFFFFF;fontColor=#FFFFFF;" vertex="1" parent="1">
          <mxGeometry x="140" y="481" width="120" height="62" as="geometry" />
        </mxCell>
        <mxCell id="7leiIgMVlhFr_THYciTA-88" style="edgeStyle=none;curved=1;rounded=0;orthogonalLoop=1;jettySize=auto;html=1;exitX=1;exitY=0.5;exitDx=0;exitDy=0;fontSize=12;startSize=8;endSize=8;labelBackgroundColor=none;strokeColor=#23445D;fontColor=default;endArrow=ERmandOne;endFill=0;" edge="1" parent="1" source="7leiIgMVlhFr_THYciTA-90" target="7leiIgMVlhFr_THYciTA-35">
          <mxGeometry relative="1" as="geometry" />
        </mxCell>
        <mxCell id="7leiIgMVlhFr_THYciTA-89" style="edgeStyle=none;curved=1;rounded=0;orthogonalLoop=1;jettySize=auto;html=1;exitX=0;exitY=0.5;exitDx=0;exitDy=0;entryX=1;entryY=0.5;entryDx=0;entryDy=0;fontSize=12;startSize=8;endSize=8;labelBackgroundColor=none;strokeColor=#23445D;fontColor=default;endArrow=ERoneToMany;endFill=0;" edge="1" parent="1" source="7leiIgMVlhFr_THYciTA-90" target="7leiIgMVlhFr_THYciTA-84">
          <mxGeometry relative="1" as="geometry" />
        </mxCell>
        <mxCell id="7leiIgMVlhFr_THYciTA-90" value="Passed_By" style="shape=rhombus;perimeter=rhombusPerimeter;whiteSpace=wrap;html=1;align=center;fontSize=16;labelBackgroundColor=none;fillColor=#182E3E;strokeColor=#FFFFFF;fontColor=#FFFFFF;" vertex="1" parent="1">
          <mxGeometry x="379" y="645" width="120" height="60" as="geometry" />
        </mxCell>
        <mxCell id="7leiIgMVlhFr_THYciTA-91" value="ID" style="ellipse;whiteSpace=wrap;html=1;align=center;fontStyle=4;fontSize=16;labelBackgroundColor=none;fillColor=#182E3E;strokeColor=#FFFFFF;fontColor=#FFFFFF;" vertex="1" parent="1">
          <mxGeometry x="-15" y="109" width="100" height="40" as="geometry" />
        </mxCell>
        <mxCell id="7leiIgMVlhFr_THYciTA-92" value="Name" style="ellipse;whiteSpace=wrap;html=1;align=center;fontSize=16;labelBackgroundColor=none;fillColor=#182E3E;strokeColor=#FFFFFF;fontColor=#FFFFFF;" vertex="1" parent="1">
          <mxGeometry x="-15" y="159" width="100" height="40" as="geometry" />
        </mxCell>
        <mxCell id="7leiIgMVlhFr_THYciTA-93" value="Password" style="ellipse;whiteSpace=wrap;html=1;align=center;fontSize=16;labelBackgroundColor=none;fillColor=#182E3E;strokeColor=#FFFFFF;fontColor=#FFFFFF;" vertex="1" parent="1">
          <mxGeometry x="-15" y="205" width="100" height="40" as="geometry" />
        </mxCell>
        <mxCell id="7leiIgMVlhFr_THYciTA-94" value="Email" style="ellipse;whiteSpace=wrap;html=1;align=center;fontSize=16;labelBackgroundColor=none;fillColor=#182E3E;strokeColor=#FFFFFF;fontColor=#FFFFFF;" vertex="1" parent="1">
          <mxGeometry x="-15" y="255" width="100" height="40" as="geometry" />
        </mxCell>
        <mxCell id="7leiIgMVlhFr_THYciTA-95" value="P-Email" style="ellipse;whiteSpace=wrap;html=1;align=center;fontSize=16;labelBackgroundColor=none;fillColor=#182E3E;strokeColor=#FFFFFF;fontColor=#FFFFFF;" vertex="1" parent="1">
          <mxGeometry x="-15" y="299" width="100" height="40" as="geometry" />
        </mxCell>
        <mxCell id="7leiIgMVlhFr_THYciTA-96" value="SSN" style="ellipse;whiteSpace=wrap;html=1;align=center;fontSize=16;labelBackgroundColor=none;fillColor=#182E3E;strokeColor=#FFFFFF;fontColor=#FFFFFF;" vertex="1" parent="1">
          <mxGeometry x="-13" y="343" width="100" height="40" as="geometry" />
        </mxCell>
        <mxCell id="7leiIgMVlhFr_THYciTA-97" value="P-phone" style="ellipse;whiteSpace=wrap;html=1;align=center;fontSize=16;labelBackgroundColor=none;fillColor=#182E3E;strokeColor=#FFFFFF;fontColor=#FFFFFF;" vertex="1" parent="1">
          <mxGeometry x="-13" y="388" width="100" height="40" as="geometry" />
        </mxCell>
        <mxCell id="7leiIgMVlhFr_THYciTA-98" value="Birth-date" style="ellipse;whiteSpace=wrap;html=1;align=center;fontSize=16;labelBackgroundColor=none;fillColor=#182E3E;strokeColor=#FFFFFF;fontColor=#FFFFFF;" vertex="1" parent="1">
          <mxGeometry x="-13" y="431" width="100" height="40" as="geometry" />
        </mxCell>
        <mxCell id="7leiIgMVlhFr_THYciTA-99" value="ID" style="ellipse;whiteSpace=wrap;html=1;align=center;strokeColor=#FFFFFF;fontSize=16;fontColor=#FFFFFF;fillColor=#182E3E;" vertex="1" parent="1">
          <mxGeometry x="-15" y="584" width="100" height="40" as="geometry" />
        </mxCell>
        <mxCell id="7leiIgMVlhFr_THYciTA-100" value="Student_id" style="ellipse;whiteSpace=wrap;html=1;align=center;strokeColor=#FFFFFF;fontSize=16;fontColor=#FFFFFF;fillColor=#182E3E;" vertex="1" parent="1">
          <mxGeometry x="-15" y="638" width="100" height="40" as="geometry" />
        </mxCell>
        <mxCell id="7leiIgMVlhFr_THYciTA-101" value="Exam_ID" style="ellipse;whiteSpace=wrap;html=1;align=center;strokeColor=#FFFFFF;fontSize=16;fontColor=#FFFFFF;fillColor=#182E3E;" vertex="1" parent="1">
          <mxGeometry x="-17" y="688" width="100" height="40" as="geometry" />
        </mxCell>
        <mxCell id="7leiIgMVlhFr_THYciTA-102" value="Degree" style="ellipse;whiteSpace=wrap;html=1;align=center;strokeColor=#FFFFFF;fontSize=16;fontColor=#FFFFFF;fillColor=#182E3E;" vertex="1" parent="1">
          <mxGeometry x="-20" y="738" width="100" height="40" as="geometry" />
        </mxCell>
        <mxCell id="7leiIgMVlhFr_THYciTA-103" value="ID" style="ellipse;whiteSpace=wrap;html=1;align=center;fontStyle=4;strokeColor=#FFFFFF;fontSize=16;fontColor=#FFFFFF;fillColor=#182E3E;" vertex="1" parent="1">
          <mxGeometry x="761" y="538" width="100" height="40" as="geometry" />
        </mxCell>
        <mxCell id="7leiIgMVlhFr_THYciTA-104" value="Name" style="ellipse;whiteSpace=wrap;html=1;align=center;strokeColor=#FFFFFF;fontSize=16;fontColor=#FFFFFF;fillColor=#182E3E;" vertex="1" parent="1">
          <mxGeometry x="764" y="602" width="100" height="40" as="geometry" />
        </mxCell>
        <mxCell id="7leiIgMVlhFr_THYciTA-105" value="Created_at" style="ellipse;whiteSpace=wrap;html=1;align=center;strokeColor=#FFFFFF;fontSize=16;fontColor=#FFFFFF;fillColor=#182E3E;" vertex="1" parent="1">
          <mxGeometry x="764" y="665" width="100" height="40" as="geometry" />
        </mxCell>
        <mxCell id="7leiIgMVlhFr_THYciTA-106" value="Teacher_id" style="ellipse;whiteSpace=wrap;html=1;align=center;strokeColor=#FFFFFF;fontSize=16;fontColor=#FFFFFF;fillColor=#182E3E;" vertex="1" parent="1">
          <mxGeometry x="861" y="383" width="100" height="40" as="geometry" />
        </mxCell>
        <mxCell id="7leiIgMVlhFr_THYciTA-107" value="Admin_id" style="ellipse;whiteSpace=wrap;html=1;align=center;strokeColor=#FFFFFF;fontSize=16;fontColor=#FFFFFF;fillColor=#182E3E;" vertex="1" parent="1">
          <mxGeometry x="1003" y="-99" width="100" height="40" as="geometry" />
        </mxCell>
        <mxCell id="7leiIgMVlhFr_THYciTA-108" value="Admin_id" style="ellipse;whiteSpace=wrap;html=1;align=center;strokeColor=#FFFFFF;fontSize=16;fontColor=#FFFFFF;fillColor=#182E3E;" vertex="1" parent="1">
          <mxGeometry x="-15" y="475" width="100" height="40" as="geometry" />
        </mxCell>
        <mxCell id="7leiIgMVlhFr_THYciTA-109" value="Class_id" style="ellipse;whiteSpace=wrap;html=1;align=center;strokeColor=#FFFFFF;fontSize=16;fontColor=#FFFFFF;fillColor=#182E3E;" vertex="1" parent="1">
          <mxGeometry x="761" y="728" width="100" height="40" as="geometry" />
        </mxCell>
        <mxCell id="7leiIgMVlhFr_THYciTA-110" style="edgeStyle=none;curved=1;rounded=0;orthogonalLoop=1;jettySize=auto;html=1;exitX=0.5;exitY=0;exitDx=0;exitDy=0;entryX=0.5;entryY=1;entryDx=0;entryDy=0;fontSize=12;startSize=8;endSize=8;" edge="1" parent="1" source="7leiIgMVlhFr_THYciTA-113" target="7leiIgMVlhFr_THYciTA-116">
          <mxGeometry relative="1" as="geometry" />
        </mxCell>
        <mxCell id="7leiIgMVlhFr_THYciTA-111" style="edgeStyle=none;curved=1;rounded=0;orthogonalLoop=1;jettySize=auto;html=1;exitX=0.5;exitY=0;exitDx=0;exitDy=0;fontSize=12;startSize=8;endSize=8;" edge="1" parent="1" source="7leiIgMVlhFr_THYciTA-113" target="7leiIgMVlhFr_THYciTA-115">
          <mxGeometry relative="1" as="geometry" />
        </mxCell>
        <mxCell id="7leiIgMVlhFr_THYciTA-112" style="edgeStyle=none;curved=1;rounded=0;orthogonalLoop=1;jettySize=auto;html=1;exitX=0.5;exitY=0;exitDx=0;exitDy=0;entryX=0.5;entryY=1;entryDx=0;entryDy=0;fontSize=12;startSize=8;endSize=8;" edge="1" parent="1" source="7leiIgMVlhFr_THYciTA-113" target="7leiIgMVlhFr_THYciTA-114">
          <mxGeometry relative="1" as="geometry" />
        </mxCell>
        <mxCell id="7leiIgMVlhFr_THYciTA-113" value="Student_classroom_Registe" style="shape=ext;margin=3;double=1;whiteSpace=wrap;html=1;align=center;fontSize=16;labelBackgroundColor=none;fillColor=#182E3E;strokeColor=#FFFFFF;fontColor=#FFFFFF;" vertex="1" parent="1">
          <mxGeometry x="311" y="123" width="205" height="40" as="geometry" />
        </mxCell>
        <mxCell id="7leiIgMVlhFr_THYciTA-114" value="&lt;span style=&quot;border-bottom: 1px dotted&quot;&gt;ID&lt;/span&gt;" style="ellipse;whiteSpace=wrap;html=1;align=center;fontSize=16;labelBackgroundColor=none;fillColor=#182E3E;strokeColor=#FFFFFF;fontColor=#FFFFFF;" vertex="1" parent="1">
          <mxGeometry x="225" y="22" width="84" height="40" as="geometry" />
        </mxCell>
        <mxCell id="7leiIgMVlhFr_THYciTA-115" value="Student_id" style="ellipse;whiteSpace=wrap;html=1;align=center;fontSize=16;labelBackgroundColor=none;fillColor=#182E3E;strokeColor=#FFFFFF;fontColor=#FFFFFF;" vertex="1" parent="1">
          <mxGeometry x="345" y="20" width="100" height="40" as="geometry" />
        </mxCell>
        <mxCell id="7leiIgMVlhFr_THYciTA-116" value="Class_id" style="ellipse;whiteSpace=wrap;html=1;align=center;fontSize=16;labelBackgroundColor=none;fillColor=#182E3E;strokeColor=#FFFFFF;fontColor=#FFFFFF;" vertex="1" parent="1">
          <mxGeometry x="460" y="18" width="100" height="40" as="geometry" />
        </mxCell>
        <mxCell id="7leiIgMVlhFr_THYciTA-117" style="edgeStyle=none;curved=1;rounded=0;orthogonalLoop=1;jettySize=auto;html=1;exitX=0;exitY=0.5;exitDx=0;exitDy=0;entryX=0.75;entryY=0;entryDx=0;entryDy=0;fontSize=12;startSize=8;endSize=8;endArrow=ERmandOne;endFill=0;" edge="1" parent="1" source="7leiIgMVlhFr_THYciTA-119" target="7leiIgMVlhFr_THYciTA-24">
          <mxGeometry relative="1" as="geometry" />
        </mxCell>
        <mxCell id="7leiIgMVlhFr_THYciTA-118" style="edgeStyle=none;rounded=0;orthogonalLoop=1;jettySize=auto;html=1;fontSize=12;startSize=8;endSize=8;endArrow=ERoneToMany;endFill=0;" edge="1" parent="1">
          <mxGeometry relative="1" as="geometry">
            <mxPoint x="375" y="169" as="targetPoint" />
            <Array as="points">
              <mxPoint x="375" y="221" />
            </Array>
            <mxPoint x="345" y="221" as="sourcePoint" />
          </mxGeometry>
        </mxCell>
        <mxCell id="7leiIgMVlhFr_THYciTA-119" value="Added_to" style="shape=rhombus;perimeter=rhombusPerimeter;whiteSpace=wrap;html=1;align=center;labelBackgroundColor=none;fillColor=#182E3E;strokeColor=#FFFFFF;fontColor=#FFFFFF;" vertex="1" parent="1">
          <mxGeometry x="225" y="191" width="120" height="60" as="geometry" />
        </mxCell>
        <mxCell id="7leiIgMVlhFr_THYciTA-120" style="edgeStyle=none;curved=1;rounded=0;orthogonalLoop=1;jettySize=auto;html=1;exitX=0;exitY=0.5;exitDx=0;exitDy=0;entryX=0.75;entryY=1;entryDx=0;entryDy=0;fontSize=12;startSize=8;endSize=8;endArrow=ERoneToMany;endFill=0;" edge="1" parent="1" source="7leiIgMVlhFr_THYciTA-121" target="7leiIgMVlhFr_THYciTA-113">
          <mxGeometry relative="1" as="geometry" />
        </mxCell>
        <mxCell id="7leiIgMVlhFr_THYciTA-121" value="Containe" style="shape=rhombus;perimeter=rhombusPerimeter;whiteSpace=wrap;html=1;align=center;labelBackgroundColor=none;fillColor=#182E3E;strokeColor=#FFFFFF;fontColor=#FFFFFF;" vertex="1" parent="1">
          <mxGeometry x="467" y="193" width="120" height="60" as="geometry" />
        </mxCell>
        <mxCell id="7leiIgMVlhFr_THYciTA-122" style="edgeStyle=orthogonalEdgeStyle;rounded=0;orthogonalLoop=1;jettySize=auto;html=1;exitX=1;exitY=0.5;exitDx=0;exitDy=0;endArrow=ERmandOne;endFill=0;labelBackgroundColor=none;strokeColor=#23445D;fontColor=default;entryX=0.25;entryY=0;entryDx=0;entryDy=0;" edge="1" parent="1" source="7leiIgMVlhFr_THYciTA-121" target="7leiIgMVlhFr_THYciTA-30">
          <mxGeometry relative="1" as="geometry">
            <mxPoint x="618" y="96" as="sourcePoint" />
            <mxPoint x="637" y="308" as="targetPoint" />
            <Array as="points">
              <mxPoint x="587" y="223" />
              <mxPoint x="631" y="223" />
              <mxPoint x="631" y="276" />
              <mxPoint x="635" y="276" />
            </Array>
          </mxGeometry>
        </mxCell>
        <mxCell id="7leiIgMVlhFr_THYciTA-123" value="Grade" style="ellipse;whiteSpace=wrap;html=1;align=center;strokeColor=#FFFFFF;fontSize=16;fontColor=#FFFFFF;fillColor=#182E3E;" vertex="1" parent="1">
          <mxGeometry x="-15" y="518" width="100" height="40" as="geometry" />
        </mxCell>
      </root>
    </mxGraphModel>
  </diagram>
</mxfile>
